<svg width="41" height="40" viewBox="0 0 41 40" fill="none" xmlns="http://www.w3.org/2000/svg">
<rect x="19.7129" y="5" width="10" height="16" fill="#CCD2D9"/>
<path d="M33.2129 3.75H11.9629C10.6368 3.75 9.36504 4.27678 8.42736 5.21447C7.48967 6.15215 6.96289 7.42392 6.96289 8.75V35C6.96289 35.3315 7.09459 35.6495 7.32901 35.8839C7.56343 36.1183 7.88137 36.25 8.21289 36.25H30.7129C31.0444 36.25 31.3624 36.1183 31.5968 35.8839C31.8312 35.6495 31.9629 35.3315 31.9629 35C31.9629 34.6685 31.8312 34.3505 31.5968 34.1161C31.3624 33.8817 31.0444 33.75 30.7129 33.75H9.46289C9.46289 33.087 9.72628 32.4511 10.1951 31.9822C10.664 31.5134 11.2998 31.25 11.9629 31.25H33.2129C33.5444 31.25 33.8624 31.1183 34.0968 30.8839C34.3312 30.6495 34.4629 30.3315 34.4629 30V5C34.4629 4.66848 34.3312 4.35054 34.0968 4.11612C33.8624 3.8817 33.5444 3.75 33.2129 3.75ZM29.4629 18.75L25.4613 15.75C25.3531 15.6689 25.2216 15.625 25.0863 15.625C24.9511 15.625 24.8195 15.6689 24.7113 15.75L20.7129 18.75V6.25H29.4629V18.75Z" fill="#E8E9ED"/>
</svg>
