<svg width="41" height="40" viewBox="0 0 41 40" fill="none" xmlns="http://www.w3.org/2000/svg">
<rect x="19.8569" y="5" width="10" height="16" fill="#FFBF1F"/>
<path d="M33.3569 3.75H12.1069C10.7809 3.75 9.50908 4.27678 8.5714 5.21447C7.63372 6.15215 7.10693 7.42392 7.10693 8.75V35C7.10693 35.3315 7.23863 35.6495 7.47305 35.8839C7.70747 36.1183 8.02541 36.25 8.35693 36.25H30.8569C31.1885 36.25 31.5064 36.1183 31.7408 35.8839C31.9752 35.6495 32.1069 35.3315 32.1069 35C32.1069 34.6685 31.9752 34.3505 31.7408 34.1161C31.5064 33.8817 31.1885 33.75 30.8569 33.75H9.60693C9.60693 33.087 9.87033 32.4511 10.3392 31.9822C10.808 31.5134 11.4439 31.25 12.1069 31.25H33.3569C33.6885 31.25 34.0064 31.1183 34.2408 30.8839C34.4752 30.6495 34.6069 30.3315 34.6069 30V5C34.6069 4.66848 34.4752 4.35054 34.2408 4.11612C34.0064 3.8817 33.6885 3.75 33.3569 3.75ZM29.6069 18.75L25.6054 15.75C25.4972 15.6689 25.3656 15.625 25.2304 15.625C25.0951 15.625 24.9636 15.6689 24.8554 15.75L20.8569 18.75V6.25H29.6069V18.75Z" fill="#FFE08C"/>
</svg>
