<svg width="41" height="40" viewBox="0 0 41 40" fill="none" xmlns="http://www.w3.org/2000/svg">
<rect x="20.8555" y="5" width="10" height="15" fill="#45A1FD"/>
<path d="M33.3555 3.75H12.1055C10.7794 3.75 9.50762 4.27678 8.56993 5.21447C7.63225 6.15215 7.10547 7.42392 7.10547 8.75V35C7.10547 35.3315 7.23717 35.6495 7.47159 35.8839C7.70601 36.1183 8.02395 36.25 8.35547 36.25H30.8555C31.187 36.25 31.5049 36.1183 31.7394 35.8839C31.9738 35.6495 32.1055 35.3315 32.1055 35C32.1055 34.6685 31.9738 34.3505 31.7394 34.1161C31.5049 33.8817 31.187 33.75 30.8555 33.75H9.60547C9.60547 33.087 9.86886 32.4511 10.3377 31.9822C10.8065 31.5134 11.4424 31.25 12.1055 31.25H33.3555C33.687 31.25 34.0049 31.1183 34.2394 30.8839C34.4738 30.6495 34.6055 30.3315 34.6055 30V5C34.6055 4.66848 34.4738 4.35054 34.2394 4.11612C34.0049 3.8817 33.687 3.75 33.3555 3.75ZM29.6055 18.75L25.6039 15.75C25.4957 15.6689 25.3641 15.625 25.2289 15.625C25.0937 15.625 24.9621 15.6689 24.8539 15.75L20.8555 18.75V6.25H29.6055V18.75Z" fill="#8CDEFF"/>
</svg>
